
        <svg xmlns="http://www.w3.org/2000/svg" xmlns:xlink="http://www.w3.org/1999/xlink" version="1.1" width="3300" 
        height="1793.2023174571602" viewBox="0 0 3300 1793.2023174571602">
			
			<g transform="scale(15) translate(10, 10)">
				<defs id="SvgjsDefs2665"></defs><g id="SvgjsG2666" featureKey="symbolFeature-0" transform="matrix(2,0,0,2,68,-2)" fill="#bf1922"><g xmlns="http://www.w3.org/2000/svg"><g><path d="M29,17h-2.04c-0.2-2.96-1.23-5.64-2.83-7.72l2.58-2.57c0.39-0.39,0.39-1.03,0-1.42c-0.39-0.39-1.03-0.39-1.42,0l-2.5,2.5    c-0.56-0.52-1.17-0.98-1.81-1.37C20.99,6.28,21,6.14,21,6c0-2.76-2.24-5-5-5s-5,2.24-5,5c0,0.14,0.01,0.28,0.02,0.42    c-0.64,0.39-1.25,0.85-1.81,1.37l-2.5-2.5c-0.39-0.39-1.03-0.39-1.42,0c-0.39,0.39-0.39,1.03,0,1.42l2.58,2.57    c-1.6,2.08-2.63,4.76-2.83,7.72H3c-0.55,0-1,0.45-1,1s0.45,1,1,1h2.04c0.2,2.96,1.23,5.64,2.83,7.72l-2.58,2.57    c-0.39,0.39-0.39,1.03,0,1.42C5.49,30.9,5.74,31,6,31s0.51-0.1,0.71-0.29l2.5-2.5C11.08,29.95,13.44,31,16,31s4.92-1.05,6.79-2.79    l2.5,2.5C25.49,30.9,25.74,31,26,31s0.51-0.1,0.71-0.29c0.39-0.39,0.39-1.03,0-1.42l-2.58-2.57c1.6-2.08,2.63-4.76,2.83-7.72H29    c0.55,0,1-0.45,1-1S29.55,17,29,17z M15,28.93C10.51,28.32,7,23.65,7,18c0-5.65,3.51-10.32,8-10.93V28.93z M13.05,5.49    C13.3,4.08,14.52,3,16,3s2.7,1.08,2.95,2.49C18.01,5.18,17.02,5,16,5S13.99,5.18,13.05,5.49z M17,28.93V7.07    c4.49,0.61,8,5.28,8,10.93C25,23.65,21.49,28.32,17,28.93z"></path><circle cx="10" cy="18" r="2"></circle><circle cx="22" cy="18" r="2"></circle><circle cx="19.5" cy="12.5" r="1.5"></circle><circle cx="12.5" cy="12.5" r="1.5"></circle><circle cx="19.5" cy="23.5" r="1.5"></circle><circle cx="12.5" cy="23.5" r="1.5"></circle></g></g></g><g id="SvgjsG2667" featureKey="nameFeature-0" transform="matrix(0.6825006625992532,0,0,0.6825006625992532,-1.0920006696287934,72.02839400520811)" fill="#3a3b3d"><path d="M1.6 40 l0 -28 l4.4 0 l0 24 l7.24 0 l0 4 l-11.64 0 z M19.488000000000003 40 l0 -28 l4.4 0 l0 28 l-4.4 0 z M35.816 16 l0 8.44 l5.68 0 l0 4 l-5.68 0 l0 11.56 l-4.4 0 l0 -28 l11.64 0 l0 4 l-7.24 0 z M53.904 16 l0 7.8 l6.04 0 l0 4 l-6.04 0 l0 8.2 l7.6 0 l0 4 l-12 0 l0 -28 l12 0 l0 4 l-7.6 0 z M85.56 12 c4.4 0 6.56 2.44 6.56 6.92 l0 3.64 c0 4.48 -2.16 6.92 -6.56 6.92 l-2.08 0 l0 10.52 l-4.4 0 l0 -28 l6.48 0 z M85.56 16 l-2.08 0 l0 9.48 l2.08 0 c1.4 0 2.16 -0.64 2.16 -2.64 l0 -4.2 c0 -2 -0.76 -2.64 -2.16 -2.64 z M102.888 28 l0 12 l-4.4 0 l0 -28 l4.4 0 l0 12 l5 0 l0 -12 l4.48 0 l0 28 l-4.48 0 l0 -12 l-5 0 z M123.936 18.44 l0 15.12 c0 2 0.88 2.76 2.28 2.76 s2.28 -0.76 2.28 -2.76 l0 -15.12 c0 -2 -0.88 -2.76 -2.28 -2.76 s-2.28 0.76 -2.28 2.76 z M119.536 33.28 l0 -14.56 c0 -4.48 2.36 -7.04 6.68 -7.04 s6.68 2.56 6.68 7.04 l0 14.56 c0 4.48 -2.36 7.04 -6.68 7.04 s-6.68 -2.56 -6.68 -7.04 z M138.784 16 l0 -4 l13.6 0 l0 4 l-4.6 0 l0 24 l-4.4 0 l0 -24 l-4.6 0 z M162.672 18.44 l0 15.12 c0 2 0.88 2.76 2.28 2.76 s2.28 -0.76 2.28 -2.76 l0 -15.12 c0 -2 -0.88 -2.76 -2.28 -2.76 s-2.28 0.76 -2.28 2.76 z M158.27200000000002 33.28 l0 -14.56 c0 -4.48 2.36 -7.04 6.68 -7.04 s6.68 2.56 6.68 7.04 l0 14.56 c0 4.48 -2.36 7.04 -6.68 7.04 s-6.68 -2.56 -6.68 -7.04 z M185.4 28.4 l0 -4 l6.16 0 l0 8.88 c0 4.48 -2.24 7.04 -6.56 7.04 s-6.56 -2.56 -6.56 -7.04 l0 -14.56 c0 -4.48 2.24 -7.04 6.56 -7.04 s6.56 2.56 6.56 7.04 l0 2.72 l-4.16 0 l0 -3 c0 -2 -0.88 -2.76 -2.28 -2.76 s-2.28 0.76 -2.28 2.76 l0 15.12 c0 2 0.88 2.72 2.28 2.72 s2.28 -0.72 2.28 -2.72 l0 -5.16 l-2 0 z M212.40800000000002 40 l-4.48 0 c-0.24 -0.72 -0.4 -1.16 -0.4 -3.44 l0 -4.4 c0 -2.6 -0.88 -3.56 -2.88 -3.56 l-1.52 0 l0 11.4 l-4.4 0 l0 -28 l6.64 0 c4.56 0 6.52 2.12 6.52 6.44 l0 2.2 c0 2.88 -0.92 4.72 -2.88 5.64 l0 0.08 c2.2 0.92 2.92 3 2.92 5.92 l0 4.32 c0 1.36 0.04 2.36 0.48 3.4 z M205.24800000000002 16 l-2.12 0 l0 8.6 l1.72 0 c1.64 0 2.64 -0.72 2.64 -2.96 l0 -2.76 c0 -2 -0.68 -2.88 -2.24 -2.88 z M228.89600000000002 12 l4.48 28 l-4.44 0 l-0.76 -5.08 l-5.4 0 l-0.76 5.08 l-4.04 0 l4.48 -28 l6.44 0 z M225.416 16.96 l-2.08 14.16 l4.24 0 l-2.08 -14.16 l-0.08 0 z M246.22400000000002 12 c4.4 0 6.56 2.44 6.56 6.92 l0 3.64 c0 4.48 -2.16 6.92 -6.56 6.92 l-2.08 0 l0 10.52 l-4.4 0 l0 -28 l6.48 0 z M246.22400000000002 16 l-2.08 0 l0 9.48 l2.08 0 c1.4 0 2.16 -0.64 2.16 -2.64 l0 -4.2 c0 -2 -0.76 -2.64 -2.16 -2.64 z M263.552 28 l0 12 l-4.4 0 l0 -28 l4.4 0 l0 12 l5 0 l0 -12 l4.48 0 l0 28 l-4.48 0 l0 -12 l-5 0 z M284.68000000000006 40 l0 -9.28 l-5.56 -18.72 l4.6 0 l3.32 12.76 l0.08 0 l3.32 -12.76 l4.2 0 l-5.56 18.72 l0 9.28 l-4.4 0 z"></path></g>
			</g>
		</svg>
	